HIERARCHY
ROOT Hips
{
	OFFSET 0.000000 0.000000 0.000000
	CHANNELS 6 Xposition Yposition Zposition Zrotation Yrotation Xrotation 
	JOINT LHipJoint
	{
		OFFSET 0.000000 0.000000 0.000000
		CHANNELS 3 Zrotation Yrotation Xrotation
		JOINT LeftUpLeg
		{
			OFFSET 1.363060 -1.794630 0.839290
			CHANNELS 3 Zrotation Yrotation Xrotation
			JOINT LeftLeg
			{
				OFFSET 2.448110 -6.726130 0.000000
				CHANNELS 3 Zrotation Yrotation Xrotation
				JOINT LeftFoot
				{
					OFFSET 2.562200 -7.039590 0.000000
					CHANNELS 3 Zrotation Yrotation Xrotation
					JOINT LeftToeBase
					{
						OFFSET 0.157640 -0.433110 2.322550
						CHANNELS 3 Zrotation Yrotation Xrotation
						End Site
						{
							OFFSET 0.000000 0.000000 0.000000
						}
					}
				}
			}
		}
	}
	JOINT RHipJoint
	{
		OFFSET 0.000000 0.000000 0.000000
		CHANNELS 3 Zrotation Yrotation Xrotation
		JOINT RightUpLeg
		{
			OFFSET -1.305520 -1.794630 0.839290
			CHANNELS 3 Zrotation Yrotation Xrotation
			JOINT RightLeg
			{
				OFFSET -2.542530 -6.985550 0.000000
				CHANNELS 3 Zrotation Yrotation Xrotation
				JOINT RightFoot
				{
					OFFSET -2.568260 -7.056230 0.000000
					CHANNELS 3 Zrotation Yrotation Xrotation
					JOINT RightToeBase
					{
						OFFSET -0.164730 -0.452590 2.363150
						CHANNELS 3 Zrotation Yrotation Xrotation
						End Site
						{
							OFFSET 0.000000 0.000000 0.000000
						}
					}
				}
			}
		}
	}
	JOINT LowerBack
	{
		OFFSET 0.000000 0.000000 0.000000
		CHANNELS 3 Zrotation Yrotation Xrotation
		JOINT Spine
		{
			OFFSET 0.028270 2.035590 -0.193380
			CHANNELS 3 Zrotation Yrotation Xrotation
			JOINT Spine1
			{
				OFFSET 0.056720 2.048850 -0.042750
				CHANNELS 3 Zrotation Yrotation Xrotation
				JOINT Neck
				{
					OFFSET 0.000000 0.000000 0.000000
					CHANNELS 3 Zrotation Yrotation Xrotation
					JOINT Neck1
					{
						OFFSET -0.054170 1.746240 0.172020
						CHANNELS 3 Zrotation Yrotation Xrotation
						JOINT Head
						{
							OFFSET 0.104070 1.761360 -0.123970
							CHANNELS 3 Zrotation Yrotation Xrotation
							End Site
							{
								OFFSET 0.000000 0.000000 0.000000
							}
						}
					}
				}
				JOINT LeftShoulder
				{
					OFFSET 0.000000 0.000000 0.000000
					CHANNELS 3 Zrotation Yrotation Xrotation
					JOINT LeftArm
					{
						OFFSET 3.362410 1.200890 -0.311210
						CHANNELS 3 Zrotation Yrotation Xrotation
						JOINT LeftForeArm
						{
							OFFSET 4.983000 -0.000000 -0.000000
							CHANNELS 3 Zrotation Yrotation Xrotation
							JOINT LeftHand
							{
								OFFSET 3.483560 -0.000000 -0.000000
								CHANNELS 3 Zrotation Yrotation Xrotation
								JOINT LeftFingerBase
								{
									OFFSET 0.000000 0.000000 0.000000
									CHANNELS 3 Zrotation Yrotation Xrotation
									JOINT LeftHandIndex1
									{
										OFFSET 0.715260 -0.000000 -0.000000
										CHANNELS 3 Zrotation Yrotation Xrotation
										End Site
										{
											OFFSET 0.000000 0.000000 0.000000
										}
									}
								}
								JOINT LThumb
								{
									OFFSET 0.000000 0.000000 0.000000
									CHANNELS 3 Zrotation Yrotation Xrotation
									End Site
									{
										OFFSET 0.000000 0.000000 0.000000
									}
								}
							}
						}
					}
				}
				JOINT RightShoulder
				{
					OFFSET 0.000000 0.000000 0.000000
					CHANNELS 3 Zrotation Yrotation Xrotation
					JOINT RightArm
					{
						OFFSET -3.136600 1.374050 -0.404650
						CHANNELS 3 Zrotation Yrotation Xrotation
						JOINT RightForeArm
						{
							OFFSET -5.241900 -0.000000 -0.000000
							CHANNELS 3 Zrotation Yrotation Xrotation
							JOINT RightHand
							{
								OFFSET -3.444170 -0.000000 -0.000000
								CHANNELS 3 Zrotation Yrotation Xrotation
								JOINT RightFingerBase
								{
									OFFSET 0.000000 0.000000 0.000000
									CHANNELS 3 Zrotation Yrotation Xrotation
									JOINT RightHandIndex1
									{
										OFFSET -0.622530 -0.000000 -0.000000
										CHANNELS 3 Zrotation Yrotation Xrotation
										End Site
										{
											OFFSET 0.000000 0.000000 0.000000
										}
									}
								}
								JOINT RThumb
								{
									OFFSET 0.000000 0.000000 0.000000
									CHANNELS 3 Zrotation Yrotation Xrotation
									End Site
									{
										OFFSET 0.000000 0.000000 0.000000
									}
								}
							}
						}
					}
				}
			}
		}
	}
}
MOTION
Frames: 8
Frame Time: 0.008333
0.142692 17.760256 0.847186 -3.037001 4.157975 7.738390 1.412140 5.371778 2.315277 -14.165339 -26.313862 -1.500876 -0.804715 3.991520 14.991873 -1.752358 10.268125 -9.770610 1.206400 -6.968300 -19.621500 -3.815625 -5.712564 1.090669 24.928062 7.725797 3.892559 0.588823 1.274208 2.339209 0.915965 -7.183577 -6.945931 -0.417000 4.145000 -11.485000 -0.333945 0.054975 -5.220151 3.454750 -0.168545 -1.807269 1.255213 0.180840 -2.058547 -17.814936 -14.396950 -12.857159 15.560570 -17.656139 9.002199 7.498800 -8.312900 11.367900 -5.511897 -9.293847 0.588449 -90.924843 0.591246 25.109261 11.688944 -10.987212 -1.197217 1.468539 2.481699 24.805612 10.266955 26.300604 4.005300 -7.125000 0.000000 0.000000 -19.660300 52.625600 -3.808400 3.281343 10.349573 2.866274 89.281425 -2.658238 16.697800 -20.941877 19.880883 -2.186193 -1.273123 1.235100 31.624213 -13.539871 13.289991 -2.690200 7.125000 0.000000 0.000000 10.689300 -16.860700 7.257800 
0.144117 17.757812 0.852483 -3.094114 4.045051 7.655588 1.419481 5.380858 2.326196 -14.171073 -26.340960 -1.369712 -0.803561 4.004719 15.029827 -1.767330 10.352275 -9.853948 1.180100 -6.894600 -19.403600 -3.809454 -5.712436 1.099010 24.969247 7.811258 4.001035 0.586674 1.276072 2.341895 0.889729 -7.019783 -7.010623 -0.420300 4.161100 -11.530400 -0.304544 0.085953 -5.246279 3.549386 -0.122903 -1.718277 1.237837 0.202587 -2.042082 -17.930471 -14.397184 -12.822826 15.591796 -17.637048 8.990584 7.531600 -8.311700 11.369300 -5.514120 -9.296171 0.575674 -90.949595 0.487939 25.103750 11.622748 -10.898361 -1.183849 1.434155 2.489532 24.927860 9.876169 26.341105 3.870000 -7.125000 0.000000 0.000000 -20.021700 52.609300 -3.874900 3.271117 10.353626 2.862952 89.277853 -2.668817 16.393885 -20.961700 19.906646 -2.182178 -1.243977 1.241846 31.859072 -13.344779 13.328242 -2.653500 7.125000 0.000000 0.000000 10.809100 -16.849900 7.344700 
0.141266 17.758321 0.854112 -3.042630 4.108568 7.701504 1.424477 5.374315 2.319676 -14.193385 -26.286275 -1.474916 -0.788811 4.016375 15.065814 -1.758835 10.254963 -9.571195 1.168800 -6.862700 -19.309200 -3.808564 -5.711247 1.098108 24.919229 7.763270 3.934463 0.585009 1.274896 2.342053 0.881940 -6.967725 -7.014585 -0.396400 4.042500 -11.196100 -0.405196 0.062336 -5.295904 3.552167 -0.150259 -1.733911 1.291000 0.191096 -2.013841 -17.977707 -14.404603 -12.839392 15.607026 -17.643294 9.024910 7.544700 -8.315000 11.396800 -5.518033 -9.297198 0.579688 -90.938102 0.395918 25.102635 11.636966 -10.934196 -1.203948 1.356175 2.584529 25.049863 8.932200 27.365319 3.671000 -7.125000 0.000000 0.000000 -21.343500 53.370000 -4.556900 3.272991 10.356250 2.856193 89.320675 -2.629965 16.034760 -20.947003 19.903419 -2.175138 -1.230233 1.249195 32.125924 -13.290760 13.334984 -2.642300 7.125000 0.000000 0.000000 10.842000 -16.852600 7.367300 
0.139738 17.757404 0.856047 -3.044208 4.200455 7.759323 1.427728 5.370169 2.308950 -14.157916 -26.307539 -1.566519 -0.779625 4.028651 15.094192 -1.778720 10.297558 -9.356172 1.217100 -6.998000 -19.709400 -3.812734 -5.712539 1.093482 24.941913 7.691701 3.867596 0.585773 1.275137 2.340956 0.896932 -7.050332 -6.948903 -0.405100 4.085900 -11.318500 -0.401216 0.044559 -5.351543 3.519415 -0.176079 -1.791458 1.287690 0.176817 -1.983705 -17.970748 -14.405212 -12.804030 15.596158 -17.653222 9.058240 7.539100 -8.321100 11.405900 -5.516526 -9.297575 0.587698 -90.872392 0.303188 25.125305 11.635264 -10.949985 -1.223000 1.285478 2.674803 25.053465 8.106742 28.317926 3.482900 -7.125000 0.000000 0.000000 -22.563600 54.071300 -5.235100 3.278648 10.359634 2.848500 89.386819 -2.601531 15.778110 -20.915797 19.878141 -2.165439 -1.216549 1.259844 32.249009 -13.206734 13.396349 -2.633400 7.125000 0.000000 0.000000 10.894900 -16.809500 7.415100 
0.139229 17.756590 0.859103 -3.096298 4.248216 7.730383 1.427341 5.370704 2.315936 -14.087900 -26.286733 -1.564435 -0.780727 4.033909 15.105899 -1.747022 10.187094 -9.510479 1.204000 -6.961700 -19.601900 -3.811736 -5.713873 1.091550 25.006519 7.632857 3.900089 0.587171 1.277528 2.342236 0.901874 -7.084308 -6.954633 -0.389000 4.005000 -11.090800 -0.343124 0.032494 -5.362950 3.527589 -0.195510 -1.771292 1.259778 0.166206 -1.977727 -17.992736 -14.412916 -12.838167 15.577023 -17.671257 9.146885 7.531900 -8.328800 11.453200 -5.503888 -9.302011 0.586646 -90.804459 0.193472 25.159813 11.593415 -10.867840 -1.185799 1.323350 2.565268 25.176446 8.566157 27.044188 3.489100 -7.125000 0.000000 0.000000 -21.507600 53.041200 -4.417300 3.271380 10.360938 2.840075 89.415370 -2.560865 15.715413 -20.862843 19.819622 -2.153651 -1.224558 1.253649 32.237568 -13.254912 13.326529 -2.631900 7.125000 0.000000 0.000000 10.865800 -16.867200 7.380600 
0.139025 17.756182 0.861038 -3.093244 4.299468 7.706232 1.420512 5.370394 2.319864 -14.082936 -26.290567 -1.545991 -0.782037 4.036560 15.114947 -1.720637 10.101777 -9.654174 1.219500 -7.004700 -19.729400 -3.813241 -5.715668 1.089696 25.011437 7.572033 3.916225 0.587758 1.278444 2.343643 0.898962 -7.076040 -6.993750 -0.361100 3.860300 -10.684000 -0.303436 0.025590 -5.354580 3.469050 -0.212025 -1.762948 1.242307 0.158381 -1.984338 -18.003167 -14.425221 -12.835588 15.560017 -17.693609 9.184127 7.522400 -8.340400 11.472000 -5.482806 -9.304589 0.590802 -90.671268 0.154473 25.213276 11.556310 -10.786013 -1.148390 1.370200 2.441355 25.344061 9.094950 25.630721 3.483100 -7.125000 0.000000 0.000000 -20.382800 51.885400 -3.578900 3.268547 10.360594 2.828392 89.457002 -2.517681 15.651864 -20.794304 19.742823 -2.135652 -1.225310 1.241332 32.301949 -13.247464 13.197089 -2.608100 7.125000 0.000000 0.000000 10.870200 -16.984600 7.355300 
0.138414 17.755164 0.864603 -3.042922 4.322667 7.696964 1.413165 5.369583 2.323065 -14.133584 -26.290175 -1.514505 -0.780042 4.038055 15.127540 -1.682513 9.956009 -9.748980 1.145800 -6.797000 -19.115400 -3.813577 -5.716361 1.088729 24.955504 7.535655 3.933841 0.587580 1.277801 2.344596 0.891970 -7.044829 -7.044485 -0.349900 3.800500 -10.516000 -0.333018 0.028616 -5.364936 3.411727 -0.212152 -1.752610 1.261276 0.160095 -1.979770 -18.014526 -14.439970 -12.822382 15.547123 -17.712900 9.176045 7.514800 -8.351600 11.470500 -5.469642 -9.308749 0.589371 -90.587922 0.063585 25.268545 11.475121 -10.666066 -1.127101 1.381769 2.408641 25.500982 9.189492 25.252142 3.462100 -7.125000 0.000000 0.000000 -20.130200 51.565900 -3.369700 3.270269 10.361382 2.825242 89.470296 -2.522256 15.678279 -20.777004 19.721310 -2.129105 -1.218150 1.235190 32.227606 -13.155186 13.172374 -2.583700 7.125000 0.000000 0.000000 10.927500 -17.016600 7.387700 
0.137701 17.754145 0.869695 -3.032580 4.321759 7.665306 1.408735 5.373187 2.327456 -14.169335 -26.326421 -1.435415 -0.782084 4.039571 15.135372 -1.682307 9.979127 -9.851939 1.121600 -6.727300 -18.910000 -3.815045 -5.718824 1.089356 24.948478 7.517171 3.985541 0.587151 1.278497 2.345488 0.888108 -7.018966 -7.050757 -0.367900 3.896300 -10.785100 -0.322461 0.044215 -5.385396 3.372109 -0.196373 -1.725428 1.254590 0.168798 -1.966517 -17.999806 -14.450270 -12.835862 15.513205 -17.729668 9.190428 7.494200 -8.359700 11.476700 -5.462453 -9.312932 0.594527 -90.528374 0.008439 25.308996 11.504259 -10.700067 -1.126284 1.405663 2.376970 25.811761 9.311958 24.976947 3.463800 -7.125000 0.000000 0.000000 -19.905800 51.340400 -3.216500 3.269693 10.360475 2.817903 89.489980 -2.528946 15.709937 -20.740030 19.676470 -2.122204 -1.221903 1.240329 32.190584 -13.176673 13.206745 -2.593500 7.125000 0.000000 0.000000 10.915900 -16.984200 7.387400 
